<?xml version="1.0" standalone="no"?>
<!DOCTYPE svg PUBLIC "-//W3C//DTD SVG 20010904//EN"
 "http://www.w3.org/TR/2001/REC-SVG-20010904/DTD/svg10.dtd">
<svg version="1.0" xmlns="http://www.w3.org/2000/svg"
 width="264.000000pt" height="264.000000pt" viewBox="0 0 264.000000 264.000000"
 preserveAspectRatio="xMidYMid meet">
<metadata>
Created by potrace 1.11, written by Peter Selinger 2001-2013
</metadata>
<g transform="translate(0.000000,264.000000) scale(0.100000,-0.100000)"
fill="#000000" stroke="none">
<path d="M1156 2147 c-503 -102 -799 -614 -635 -1100 115 -341 433 -569 794
-570 50 0 113 3 140 8 97 14 255 76 328 127 33 23 30 25 60 -32 47 -90 160
-115 246 -56 76 53 75 44 76 556 1 312 -2 457 -9 462 -8 5 -8 8 -1 8 7 0 10
79 9 238 -1 269 -4 281 -82 336 -43 31 -102 37 -155 17 -42 -16 -96 -76 -101
-113 -3 -18 -18 -18 -43 0 -77 54 -235 115 -333 128 -100 13 -202 10 -294 -9z
m339 -360 c105 -42 169 -91 229 -175 45 -62 66 -111 81 -187 33 -171 -20 -350
-137 -462 -47 -46 -142 -100 -207 -119 -73 -21 -202 -21 -277 1 -317 91 -455
455 -282 743 61 100 166 177 293 213 87 24 221 18 300 -14z"/>
</g>
</svg>
